<svg xmlns="http://www.w3.org/2000/svg" viewBox="0 0 900 560">
  <defs>
    <linearGradient id="gbg4" x1="0" y1="0" x2="1" y2="1">
      <stop offset="0%" stop-color="#0a192f"/>
      <stop offset="100%" stop-color="#0d2137"/>
    </linearGradient>
    <linearGradient id="gg4" x1="0" y1="0" x2="1" y2="0">
      <stop offset="0%" stop-color="#64ffda"/>
      <stop offset="100%" stop-color="#4dd9bf"/>
    </linearGradient>
  </defs>
  <rect width="900" height="560" fill="url(#gbg4)"/>

  <!-- Title -->
  <text x="450" y="40" text-anchor="middle" font-family="Segoe UI,Arial,sans-serif" font-size="11" fill="rgba(100,255,218,0.4)" letter-spacing="3">LLM CONTEXTUAL RESPONSE ENGINE</text>
  <line x1="80" y1="50" x2="820" y2="50" stroke="rgba(100,255,218,0.07)" stroke-width="1"/>

  <!-- Left: Prompt Builder -->
  <rect x="30" y="70" width="260" height="440" rx="14" fill="#112240" stroke="rgba(100,255,218,0.12)" stroke-width="1.5"/>
  <rect x="30" y="70" width="260" height="3" rx="1.5" fill="url(#gg4)"/>
  <text x="160" y="96" text-anchor="middle" font-family="Segoe UI,Arial,sans-serif" font-size="10" fill="rgba(100,255,218,0.45)" letter-spacing="2">PROMPT BUILDER</text>

  <!-- system prompt -->
  <rect x="46" y="108" width="228" height="68" rx="8" fill="#172a45" stroke="rgba(100,255,218,0.07)" stroke-width="1"/>
  <text x="60" y="126" font-family="Segoe UI,Arial,sans-serif" font-size="9" fill="rgba(100,255,218,0.4)">// System Prompt</text>
  <text x="60" y="142" font-family="Segoe UI,Arial,sans-serif" font-size="10.5" fill="#8892b0">"You are a helpful AI</text>
  <text x="60" y="158" font-family="Segoe UI,Arial,sans-serif" font-size="10.5" fill="#8892b0"> assistant for Bluexkye..."</text>

  <!-- context block -->
  <rect x="46" y="186" width="228" height="68" rx="8" fill="#172a45" stroke="rgba(100,255,218,0.07)" stroke-width="1"/>
  <text x="60" y="204" font-family="Segoe UI,Arial,sans-serif" font-size="9" fill="rgba(100,255,218,0.4)">// Conversation Context</text>
  <text x="60" y="220" font-family="Segoe UI,Arial,sans-serif" font-size="10.5" fill="#8892b0">history: [last 10 turns]</text>
  <text x="60" y="236" font-family="Segoe UI,Arial,sans-serif" font-size="10.5" fill="#8892b0">user_profile: {prefs...}</text>

  <!-- user query -->
  <rect x="46" y="264" width="228" height="56" rx="8" fill="#172a45" stroke="rgba(100,255,218,0.07)" stroke-width="1"/>
  <text x="60" y="282" font-family="Segoe UI,Arial,sans-serif" font-size="9" fill="rgba(100,255,218,0.4)">// User Message</text>
  <text x="60" y="298" font-family="Segoe UI,Arial,sans-serif" font-size="10.5" fill="#ccd6f6">"What is the refund</text>
  <text x="60" y="314" font-family="Segoe UI,Arial,sans-serif" font-size="10.5" fill="#ccd6f6"> policy for premium?"</text>

  <!-- token meter -->
  <text x="46" y="344" font-family="Segoe UI,Arial,sans-serif" font-size="10.5" fill="#8892b0">Tokens: <tspan fill="#64ffda">342</tspan> / 4096</text>
  <rect x="46" y="350" width="228" height="7" rx="3.5" fill="#172a45"/>
  <rect x="46" y="350" width="76" height="7" rx="3.5" fill="url(#gg4)" opacity="0.7"/>

  <!-- params -->
  <text x="46" y="378" font-family="Segoe UI,Arial,sans-serif" font-size="10.5" fill="#8892b0">temperature:  <tspan fill="#64ffda">0.7</tspan></text>
  <text x="46" y="396" font-family="Segoe UI,Arial,sans-serif" font-size="10.5" fill="#8892b0">max_tokens:  <tspan fill="#64ffda">512</tspan></text>
  <text x="46" y="414" font-family="Segoe UI,Arial,sans-serif" font-size="10.5" fill="#8892b0">model:  <tspan fill="#64ffda">llm-v2-turbo</tspan></text>

  <!-- send btn -->
  <rect x="46" y="432" width="228" height="40" rx="20" fill="url(#gg4)"/>
  <text x="160" y="457" text-anchor="middle" font-family="Segoe UI,Arial,sans-serif" font-size="12" fill="#0a192f" font-weight="700">▶  Send to LLM</text>

  <!-- Arrow -->
  <line x1="292" y1="280" x2="330" y2="280" stroke="rgba(100,255,218,0.5)" stroke-width="2"/>
  <polygon points="326,274 336,280 326,286" fill="#64ffda"/>

  <!-- Center: neural net -->
  <rect x="340" y="70" width="220" height="440" rx="14" fill="#112240" stroke="rgba(100,255,218,0.15)" stroke-width="2"/>
  <rect x="340" y="70" width="220" height="4" rx="2" fill="url(#gg4)"/>
  <text x="450" y="96" text-anchor="middle" font-family="Segoe UI,Arial,sans-serif" font-size="10" fill="rgba(100,255,218,0.45)" letter-spacing="2">LLM CORE</text>

  <!-- Layer dots and connections -->
  <!-- L1: x=380 -->
  <!-- L2: x=450 -->
  <!-- L3: x=520 -->
  <!-- connections L1->L2 -->
  <line x1="388" y1="160" x2="442" y2="180" stroke="rgba(100,255,218,0.1)" stroke-width="1"/>
  <line x1="388" y1="200" x2="442" y2="180" stroke="rgba(100,255,218,0.1)" stroke-width="1"/>
  <line x1="388" y1="200" x2="442" y2="220" stroke="rgba(100,255,218,0.1)" stroke-width="1"/>
  <line x1="388" y1="240" x2="442" y2="220" stroke="rgba(100,255,218,0.1)" stroke-width="1"/>
  <line x1="388" y1="240" x2="442" y2="260" stroke="rgba(100,255,218,0.1)" stroke-width="1"/>
  <line x1="388" y1="280" x2="442" y2="260" stroke="rgba(100,255,218,0.1)" stroke-width="1"/>
  <line x1="388" y1="280" x2="442" y2="300" stroke="rgba(100,255,218,0.1)" stroke-width="1"/>
  <line x1="388" y1="320" x2="442" y2="300" stroke="rgba(100,255,218,0.1)" stroke-width="1"/>
  <line x1="388" y1="320" x2="442" y2="340" stroke="rgba(100,255,218,0.1)" stroke-width="1"/>
  <line x1="388" y1="360" x2="442" y2="340" stroke="rgba(100,255,218,0.1)" stroke-width="1"/>
  <line x1="388" y1="360" x2="442" y2="380" stroke="rgba(100,255,218,0.1)" stroke-width="1"/>
  <line x1="388" y1="400" x2="442" y2="380" stroke="rgba(100,255,218,0.1)" stroke-width="1"/>
  <!-- connections L2->L3 -->
  <line x1="458" y1="180" x2="512" y2="200" stroke="rgba(100,255,218,0.1)" stroke-width="1"/>
  <line x1="458" y1="220" x2="512" y2="200" stroke="rgba(100,255,218,0.1)" stroke-width="1"/>
  <line x1="458" y1="220" x2="512" y2="240" stroke="rgba(100,255,218,0.1)" stroke-width="1"/>
  <line x1="458" y1="260" x2="512" y2="240" stroke="rgba(100,255,218,0.1)" stroke-width="1"/>
  <line x1="458" y1="260" x2="512" y2="280" stroke="rgba(100,255,218,0.1)" stroke-width="1"/>
  <line x1="458" y1="300" x2="512" y2="280" stroke="rgba(100,255,218,0.1)" stroke-width="1"/>
  <line x1="458" y1="300" x2="512" y2="320" stroke="rgba(100,255,218,0.1)" stroke-width="1"/>
  <line x1="458" y1="340" x2="512" y2="320" stroke="rgba(100,255,218,0.1)" stroke-width="1"/>
  <line x1="458" y1="340" x2="512" y2="360" stroke="rgba(100,255,218,0.1)" stroke-width="1"/>
  <line x1="458" y1="380" x2="512" y2="360" stroke="rgba(100,255,218,0.1)" stroke-width="1"/>

  <!-- L1 nodes -->
  <circle cx="388" cy="160" r="7" fill="#172a45" stroke="#64ffda" stroke-width="1.4"/>
  <circle cx="388" cy="200" r="7" fill="#172a45" stroke="#64ffda" stroke-width="1.4"/>
  <circle cx="388" cy="240" r="7" fill="#172a45" stroke="#64ffda" stroke-width="1.4"/>
  <circle cx="388" cy="280" r="7" fill="#172a45" stroke="#64ffda" stroke-width="1.4"/>
  <circle cx="388" cy="320" r="7" fill="#172a45" stroke="#64ffda" stroke-width="1.4"/>
  <circle cx="388" cy="360" r="7" fill="#172a45" stroke="#64ffda" stroke-width="1.4"/>
  <circle cx="388" cy="400" r="7" fill="#172a45" stroke="#64ffda" stroke-width="1.4"/>
  <!-- L2 nodes -->
  <circle cx="450" cy="180" r="9" fill="#172a45" stroke="#4dd9bf" stroke-width="1.4"/>
  <circle cx="450" cy="220" r="9" fill="#172a45" stroke="#4dd9bf" stroke-width="1.4"/>
  <circle cx="450" cy="260" r="9" fill="#172a45" stroke="#4dd9bf" stroke-width="1.4"/>
  <circle cx="450" cy="300" r="9" fill="#172a45" stroke="#4dd9bf" stroke-width="1.4"/>
  <circle cx="450" cy="340" r="9" fill="#172a45" stroke="#4dd9bf" stroke-width="1.4"/>
  <circle cx="450" cy="380" r="9" fill="#172a45" stroke="#4dd9bf" stroke-width="1.4"/>
  <!-- L3 nodes -->
  <circle cx="512" cy="200" r="7" fill="#172a45" stroke="#64ffda" stroke-width="1.4"/>
  <circle cx="512" cy="240" r="7" fill="#172a45" stroke="#64ffda" stroke-width="1.4"/>
  <circle cx="512" cy="280" r="7" fill="#172a45" stroke="#64ffda" stroke-width="1.4"/>
  <circle cx="512" cy="320" r="7" fill="#172a45" stroke="#64ffda" stroke-width="1.4"/>
  <circle cx="512" cy="360" r="7" fill="#172a45" stroke="#64ffda" stroke-width="1.4"/>

  <text x="450" y="432" text-anchor="middle" font-family="Segoe UI,Arial,sans-serif" font-size="10" fill="rgba(100,255,218,0.3)">Transformer · Attention</text>
  <text x="450" y="450" text-anchor="middle" font-family="Segoe UI,Arial,sans-serif" font-size="10" fill="rgba(100,255,218,0.2)">Embeddings · Decoding</text>

  <!-- Arrow out -->
  <line x1="562" y1="280" x2="600" y2="280" stroke="rgba(100,255,218,0.5)" stroke-width="2"/>
  <polygon points="596,274 606,280 596,286" fill="#64ffda"/>

  <!-- Right: Output -->
  <rect x="610" y="70" width="260" height="440" rx="14" fill="#112240" stroke="rgba(100,255,218,0.12)" stroke-width="1.5"/>
  <rect x="610" y="70" width="260" height="3" rx="1.5" fill="url(#gg4)"/>
  <text x="740" y="96" text-anchor="middle" font-family="Segoe UI,Arial,sans-serif" font-size="10" fill="rgba(100,255,218,0.45)" letter-spacing="2">AI RESPONSE</text>

  <!-- output lines simulation -->
  <rect x="626" y="108" width="228" height="238" rx="8" fill="#172a45" stroke="rgba(100,255,218,0.06)" stroke-width="1"/>
  <rect x="638" y="120" width="192" height="10" rx="5" fill="rgba(100,255,218,0.18)"/>
  <rect x="638" y="136" width="210" height="10" rx="5" fill="rgba(100,255,218,0.14)"/>
  <rect x="638" y="152" width="178" height="10" rx="5" fill="rgba(100,255,218,0.12)"/>
  <rect x="638" y="168" width="216" height="10" rx="5" fill="rgba(100,255,218,0.1)"/>
  <rect x="638" y="184" width="164" height="10" rx="5" fill="rgba(100,255,218,0.08)"/>
  <rect x="638" y="208" width="200" height="10" rx="5" fill="rgba(100,255,218,0.07)"/>
  <rect x="638" y="224" width="188" height="10" rx="5" fill="rgba(100,255,218,0.06)"/>
  <rect x="638" y="240" width="218" height="10" rx="5" fill="rgba(100,255,218,0.05)"/>
  <rect x="638" y="256" width="170" height="10" rx="5" fill="rgba(100,255,218,0.04)"/>
  <!-- text overlay -->
  <text x="638" y="130" font-family="Segoe UI,Arial,sans-serif" font-size="11" fill="#ccd6f6">Our refund policy allows a</text>
  <text x="638" y="148" font-family="Segoe UI,Arial,sans-serif" font-size="11" fill="#ccd6f6">full refund within 30 days.</text>
  <text x="638" y="168" font-family="Segoe UI,Arial,sans-serif" font-size="11" fill="#a8b2d1">After 30 days, partial refunds</text>
  <text x="638" y="186" font-family="Segoe UI,Arial,sans-serif" font-size="11" fill="#a8b2d1">may apply based on usage...</text>
  <!-- cursor -->
  <rect x="638" y="316" width="7" height="14" rx="2" fill="#64ffda" opacity="0.8"/>

  <!-- confidence -->
  <rect x="626" y="358" width="228" height="52" rx="8" fill="rgba(100,255,218,0.04)" stroke="rgba(100,255,218,0.07)" stroke-width="1"/>
  <text x="638" y="376" font-family="Segoe UI,Arial,sans-serif" font-size="10.5" fill="#8892b0">Confidence Score</text>
  <rect x="638" y="382" width="204" height="8" rx="4" fill="#172a45"/>
  <rect x="638" y="382" width="172" height="8" rx="4" fill="url(#gg4)" opacity="0.6"/>
  <text x="836" y="390" text-anchor="end" font-family="Segoe UI,Arial,sans-serif" font-size="10.5" fill="#64ffda">94.2%</text>

  <!-- metadata -->
  <text x="626" y="430" font-family="Segoe UI,Arial,sans-serif" font-size="10.5" fill="#8892b0">Tokens: <tspan fill="#64ffda">187</tspan>  ·  Latency: <tspan fill="#64ffda">320ms</tspan></text>
  <text x="626" y="448" font-family="Segoe UI,Arial,sans-serif" font-size="10.5" fill="#8892b0">Model: <tspan fill="#64ffda">llm-v2-chat-turbo</tspan></text>

  <!-- delivered -->
  <rect x="626" y="462" width="228" height="36" rx="18" fill="rgba(100,255,218,0.08)" stroke="rgba(100,255,218,0.2)" stroke-width="1"/>
  <text x="740" y="485" text-anchor="middle" font-family="Segoe UI,Arial,sans-serif" font-size="11" fill="#64ffda">✓ Delivered to Client</text>

  <text x="450" y="536" text-anchor="middle" font-family="Segoe UI,Arial,sans-serif" font-size="10" fill="rgba(100,255,218,0.15)" letter-spacing="3">CONTEXTUAL AI · STREAMING · SUB-500ms LATENCY</text>
</svg>
