<svg width="800" height="500" xmlns="http://www.w3.org/2000/svg" font-family="Arial, sans-serif">
  <defs>
    <linearGradient id="sb3" x1="0%" y1="0%" x2="0%" y2="100%">
      <stop offset="0%" stop-color="#071a2e"/>
      <stop offset="100%" stop-color="#050f1c"/>
    </linearGradient>
  </defs>

  <rect width="800" height="500" fill="#0a0f1a"/>
  <rect x="0" y="0" width="168" height="500" fill="url(#sb3)"/>
  <rect x="166" y="0" width="2" height="500" fill="#1a2a3a"/>

  <rect x="12" y="14" width="144" height="50" rx="10" fill="#00b4d8" fill-opacity="0.12"/>
  <rect x="18" y="22" width="32" height="32" rx="8" fill="#00b4d8"/>
  <text x="34" y="42" text-anchor="middle" fill="white" font-size="16" font-weight="bold">✚</text>
  <text x="60" y="35" fill="#00b4d8" font-size="13" font-weight="bold">HIMS</text>
  <text x="60" y="52" fill="#4a8fa8" font-size="9">Hospital Info System</text>

  <text x="24" y="101" fill="#4a6e80" font-size="12">⊞  Dashboard</text>
  <text x="24" y="135" fill="#4a6e80" font-size="12">👤  Patients</text>
  <rect x="8" y="152" width="152" height="34" rx="8" fill="#00b4d8" fill-opacity="0.18"/>
  <rect x="8" y="152" width="3" height="34" rx="2" fill="#00b4d8"/>
  <text x="24" y="174" fill="#00b4d8" font-size="12" font-weight="bold">📅  Appointments</text>
  <text x="24" y="208" fill="#4a6e80" font-size="12">🏥  Wards &amp; Beds</text>
  <text x="24" y="242" fill="#4a6e80" font-size="12">💊  Pharmacy</text>
  <text x="24" y="276" fill="#4a6e80" font-size="12">🧪  Lab Results</text>
  <text x="24" y="310" fill="#4a6e80" font-size="12">₹  Billing</text>
  <text x="24" y="344" fill="#4a6e80" font-size="12">📊  Reports</text>
  <text x="24" y="378" fill="#4a6e80" font-size="12">⚙  Settings</text>

  <rect x="8" y="442" width="152" height="48" rx="10" fill="#0d1f2d"/>
  <circle cx="32" cy="466" r="15" fill="#00b4d8" fill-opacity="0.7"/>
  <text x="32" y="471" text-anchor="middle" fill="white" font-size="12" font-weight="bold">R</text>
  <text x="56" y="461" fill="#c9d1d9" font-size="12" font-weight="bold">Dr. Rani M.</text>
  <text x="56" y="476" fill="#4a6e80" font-size="10">Administrator</text>

  <!-- Header -->
  <text x="186" y="36" fill="#c9d1d9" font-size="20" font-weight="bold">Appointment Scheduling</text>
  <text x="186" y="55" fill="#4a6e80" font-size="12">Manage doctor appointments and schedules</text>
  <rect x="658" y="18" width="130" height="30" rx="8" fill="#00b4d8" fill-opacity="0.18"/>
  <text x="723" y="37" text-anchor="middle" fill="#00b4d8" font-size="11">+ Book Appointment</text>

  <!-- Mini Calendar -->
  <rect x="184" y="66" width="210" height="230" rx="14" fill="#0d1f2d"/>
  <text x="289" y="94" text-anchor="middle" fill="#c9d1d9" font-size="13" font-weight="bold">April 2026</text>
  <text x="200" y="94" fill="#4a6e80" font-size="14">‹</text>
  <text x="376" y="94" text-anchor="end" fill="#4a6e80" font-size="14">›</text>

  <!-- Days header -->
  <text x="200" y="112" fill="#4a6e80" font-size="9">Su</text>
  <text x="225" y="112" fill="#4a6e80" font-size="9">Mo</text>
  <text x="250" y="112" fill="#4a6e80" font-size="9">Tu</text>
  <text x="275" y="112" fill="#4a6e80" font-size="9">We</text>
  <text x="300" y="112" fill="#4a6e80" font-size="9">Th</text>
  <text x="325" y="112" fill="#4a6e80" font-size="9">Fr</text>
  <text x="350" y="112" fill="#4a6e80" font-size="9">Sa</text>

  <!-- Week 1 -->
  <text x="300" y="132" fill="#4a6e80" font-size="11">1</text>
  <text x="325" y="132" fill="#4a6e80" font-size="11">2</text>
  <text x="350" y="132" fill="#4a6e80" font-size="11">3</text>
  <!-- Week 2 -->
  <text x="200" y="152" fill="#8b949e" font-size="11">5</text>
  <text x="225" y="152" fill="#8b949e" font-size="11">6</text>
  <text x="250" y="152" fill="#8b949e" font-size="11">7</text>
  <text x="275" y="152" fill="#8b949e" font-size="11">8</text>
  <text x="300" y="152" fill="#8b949e" font-size="11">9</text>
  <text x="322" y="152" fill="#8b949e" font-size="11">10</text>
  <text x="347" y="152" fill="#8b949e" font-size="11">11</text>
  <!-- Week 3 -->
  <text x="197" y="172" fill="#8b949e" font-size="11">12</text>
  <text x="222" y="172" fill="#8b949e" font-size="11">13</text>
  <text x="247" y="172" fill="#8b949e" font-size="11">14</text>
  <text x="272" y="172" fill="#8b949e" font-size="11">15</text>
  <text x="297" y="172" fill="#8b949e" font-size="11">16</text>
  <text x="322" y="172" fill="#8b949e" font-size="11">17</text>
  <text x="347" y="172" fill="#8b949e" font-size="11">18</text>
  <!-- Week 4 -->
  <text x="197" y="192" fill="#8b949e" font-size="11">19</text>
  <!-- Today = 20 highlighted -->
  <circle cx="231" cy="186" r="12" fill="#00b4d8"/>
  <text x="231" y="192" text-anchor="middle" fill="white" font-size="11" font-weight="bold">20</text>
  <text x="247" y="192" fill="#8b949e" font-size="11">21</text>
  <text x="272" y="192" fill="#8b949e" font-size="11">22</text>
  <!-- dot indicators -->
  <circle cx="300" cy="196" r="3" fill="#e3342f"/>
  <text x="297" y="192" fill="#8b949e" font-size="11">23</text>
  <text x="322" y="192" fill="#8b949e" font-size="11">24</text>
  <text x="347" y="192" fill="#8b949e" font-size="11">25</text>
  <!-- Week 5 -->
  <text x="197" y="212" fill="#8b949e" font-size="11">26</text>
  <text x="222" y="212" fill="#8b949e" font-size="11">27</text>
  <text x="247" y="212" fill="#8b949e" font-size="11">28</text>
  <text x="272" y="212" fill="#8b949e" font-size="11">29</text>
  <text x="297" y="212" fill="#8b949e" font-size="11">30</text>

  <!-- Legend -->
  <circle cx="200" cy="270" r="5" fill="#00b4d8"/>
  <text x="210" y="274" fill="#8b949e" font-size="10">Today</text>
  <circle cx="248" cy="270" r="5" fill="#e3342f"/>
  <text x="258" y="274" fill="#8b949e" font-size="10">Full</text>
  <circle cx="286" cy="270" r="5" fill="#3fb950"/>
  <text x="296" y="274" fill="#8b949e" font-size="10">Available</text>

  <!-- Filter Tabs -->
  <rect x="400" y="66" width="388" height="32" rx="8" fill="#0d1f2d"/>
  <rect x="404" y="70" width="92" height="24" rx="6" fill="#00b4d8" fill-opacity="0.25"/>
  <text x="450" y="86" text-anchor="middle" fill="#00b4d8" font-size="11" font-weight="bold">All (84)</text>
  <text x="534" y="86" text-anchor="middle" fill="#4a6e80" font-size="11">Scheduled (22)</text>
  <text x="638" y="86" text-anchor="middle" fill="#4a6e80" font-size="11">In Progress (6)</text>
  <text x="748" y="86" text-anchor="middle" fill="#4a6e80" font-size="11">Done (56)</text>

  <!-- Appointment Slots -->
  <text x="402" y="118" fill="#c9d1d9" font-size="12" font-weight="bold">Today — 20 April 2026</text>

  <!-- Slot 1 -->
  <rect x="400" y="126" width="388" height="52" rx="10" fill="#0d1f2d"/>
  <rect x="400" y="126" width="4" height="52" rx="2" fill="#3fb950"/>
  <text x="414" y="147" fill="#8b949e" font-size="10">09:00 – 09:30</text>
  <circle cx="500" cy="154" r="14" fill="#0077b6" fill-opacity="0.3"/>
  <text x="500" y="159" text-anchor="middle" fill="#00b4d8" font-size="11" font-weight="bold">S</text>
  <text x="522" y="147" fill="#c9d1d9" font-size="12" font-weight="bold">Sunita Patil</text>
  <text x="522" y="163" fill="#4a6e80" font-size="10">General  ·  Dr. Sharma  ·  Room 101</text>
  <rect x="716" y="136" width="64" height="20" rx="6" fill="#3fb950" fill-opacity="0.14"/>
  <text x="748" y="150" text-anchor="middle" fill="#3fb950" font-size="10">Completed</text>

  <!-- Slot 2 -->
  <rect x="400" y="184" width="388" height="52" rx="10" fill="#0d1f2d"/>
  <rect x="400" y="184" width="4" height="52" rx="2" fill="#00b4d8"/>
  <text x="414" y="205" fill="#8b949e" font-size="10">10:30 – 11:00</text>
  <circle cx="500" cy="212" r="14" fill="#0096a8" fill-opacity="0.3"/>
  <text x="500" y="217" text-anchor="middle" fill="#00e0f0" font-size="11" font-weight="bold">R</text>
  <text x="522" y="205" fill="#c9d1d9" font-size="12" font-weight="bold">Ramesh Joshi</text>
  <text x="522" y="221" fill="#4a6e80" font-size="10">Cardiology  ·  Dr. Mehta  ·  Room 204</text>
  <rect x="704" y="194" width="76" height="20" rx="6" fill="#00b4d8" fill-opacity="0.14"/>
  <text x="742" y="208" text-anchor="middle" fill="#00b4d8" font-size="10">In Progress</text>

  <!-- Slot 3 -->
  <rect x="400" y="242" width="388" height="52" rx="10" fill="#0d1f2d"/>
  <rect x="400" y="242" width="4" height="52" rx="2" fill="#ffd700"/>
  <text x="414" y="263" fill="#8b949e" font-size="10">11:00 – 11:30</text>
  <circle cx="500" cy="270" r="14" fill="#c05621" fill-opacity="0.3"/>
  <text x="500" y="275" text-anchor="middle" fill="#ffa040" font-size="11" font-weight="bold">A</text>
  <text x="522" y="263" fill="#c9d1d9" font-size="12" font-weight="bold">Aasha Nair</text>
  <text x="522" y="279" fill="#4a6e80" font-size="10">Gynaecology  ·  Dr. Kulkarni  ·  Room 302</text>
  <rect x="716" y="252" width="64" height="20" rx="6" fill="#ffd700" fill-opacity="0.1"/>
  <text x="748" y="266" text-anchor="middle" fill="#ffd700" font-size="10">Waiting</text>

  <!-- Slot 4 -->
  <rect x="400" y="300" width="388" height="52" rx="10" fill="#0d1f2d"/>
  <rect x="400" y="300" width="4" height="52" rx="2" fill="#8b949e"/>
  <text x="414" y="321" fill="#8b949e" font-size="10">12:00 – 12:30</text>
  <circle cx="500" cy="328" r="14" fill="#1b7a34" fill-opacity="0.3"/>
  <text x="500" y="333" text-anchor="middle" fill="#3fb950" font-size="11" font-weight="bold">V</text>
  <text x="522" y="321" fill="#c9d1d9" font-size="12" font-weight="bold">Vikas Gupta</text>
  <text x="522" y="337" fill="#4a6e80" font-size="10">Orthopaedics  ·  Dr. Singh  ·  Room 115</text>
  <rect x="712" y="310" width="68" height="20" rx="6" fill="#4a6e80" fill-opacity="0.2"/>
  <text x="746" y="324" text-anchor="middle" fill="#8b949e" font-size="10">Scheduled</text>

  <!-- Slot 5 -->
  <rect x="400" y="358" width="388" height="52" rx="10" fill="#0d1f2d"/>
  <rect x="400" y="358" width="4" height="52" rx="2" fill="#8b949e"/>
  <text x="414" y="379" fill="#8b949e" font-size="10">14:30 – 15:00</text>
  <circle cx="500" cy="386" r="14" fill="#0077b6" fill-opacity="0.3"/>
  <text x="500" y="391" text-anchor="middle" fill="#00b4d8" font-size="11" font-weight="bold">M</text>
  <text x="522" y="379" fill="#c9d1d9" font-size="12" font-weight="bold">Meena Desai</text>
  <text x="522" y="395" fill="#4a6e80" font-size="10">General  ·  Dr. Sharma  ·  Room 101</text>
  <rect x="712" y="368" width="68" height="20" rx="6" fill="#4a6e80" fill-opacity="0.2"/>
  <text x="746" y="382" text-anchor="middle" fill="#8b949e" font-size="10">Scheduled</text>

  <!-- Doctor Availability -->
  <rect x="184" y="310" width="210" height="174" rx="14" fill="#0d1f2d"/>
  <text x="200" y="335" fill="#c9d1d9" font-size="12" font-weight="bold">Doctor Availability</text>
  <rect x="195" y="343" width="185" height="1" fill="#1a2a3a"/>

  <rect x="195" y="352" width="185" height="36" rx="8" fill="#162030"/>
  <circle cx="216" cy="370" r="10" fill="#3fb950" fill-opacity="0.3"/>
  <text x="216" y="374" text-anchor="middle" fill="#3fb950" font-size="9">S</text>
  <text x="232" y="367" fill="#c9d1d9" font-size="11">Dr. Sharma</text>
  <text x="232" y="380" fill="#4a6e80" font-size="9">General  ·  4 slots left</text>
  <circle cx="372" cy="370" r="5" fill="#3fb950"/>

  <rect x="195" y="394" width="185" height="36" rx="8" fill="#162030"/>
  <circle cx="216" cy="412" r="10" fill="#e3342f" fill-opacity="0.3"/>
  <text x="216" y="416" text-anchor="middle" fill="#e3342f" font-size="9">M</text>
  <text x="232" y="409" fill="#c9d1d9" font-size="11">Dr. Mehta</text>
  <text x="232" y="422" fill="#4a6e80" font-size="9">Cardiology  ·  Full today</text>
  <circle cx="372" cy="412" r="5" fill="#e3342f"/>

  <rect x="195" y="436" width="185" height="36" rx="8" fill="#162030"/>
  <circle cx="216" cy="454" r="10" fill="#ffd700" fill-opacity="0.2"/>
  <text x="216" y="458" text-anchor="middle" fill="#ffd700" font-size="9">K</text>
  <text x="232" y="451" fill="#c9d1d9" font-size="11">Dr. Kulkarni</text>
  <text x="232" y="464" fill="#4a6e80" font-size="9">Gynaecology  ·  2 slots left</text>
  <circle cx="372" cy="454" r="5" fill="#ffd700"/>

  <!-- Stats summary bottom -->
  <rect x="400" y="418" width="388" height="68" rx="10" fill="#0d1f2d"/>
  <text x="420" y="444" fill="#4a6e80" font-size="11">Total Today</text>
  <text x="420" y="462" fill="#c9d1d9" font-size="18" font-weight="bold">84</text>
  <rect x="508" y="430" width="1" height="40" fill="#1a2a3a"/>
  <text x="522" y="444" fill="#4a6e80" font-size="11">Completed</text>
  <text x="522" y="462" fill="#3fb950" font-size="18" font-weight="bold">56</text>
  <rect x="616" y="430" width="1" height="40" fill="#1a2a3a"/>
  <text x="630" y="444" fill="#4a6e80" font-size="11">In Progress</text>
  <text x="630" y="462" fill="#00b4d8" font-size="18" font-weight="bold">6</text>
  <rect x="720" y="430" width="1" height="40" fill="#1a2a3a"/>
  <text x="734" y="444" fill="#4a6e80" font-size="11">Pending</text>
  <text x="734" y="462" fill="#ffd700" font-size="18" font-weight="bold">22</text>
</svg>
