<svg width="800" height="500" xmlns="http://www.w3.org/2000/svg" font-family="Arial, sans-serif">
  <defs>
    <linearGradient id="walletHero" x1="0%" y1="0%" x2="100%" y2="100%">
      <stop offset="0%" stop-color="#0a3d2e"/>
      <stop offset="100%" stop-color="#0d2137"/>
    </linearGradient>
    <linearGradient id="sidebar3" x1="0%" y1="0%" x2="0%" y2="100%">
      <stop offset="0%" stop-color="#0f1923"/>
      <stop offset="100%" stop-color="#0a1118"/>
    </linearGradient>
  </defs>

  <rect width="800" height="500" fill="#0d1117"/>

  <!-- Sidebar -->
  <rect x="0" y="0" width="170" height="500" fill="url(#sidebar3)"/>
  <rect x="168" y="0" width="2" height="500" fill="#21262d"/>
  <rect x="15" y="16" width="140" height="48" rx="10" fill="#1f6feb" fill-opacity="0.15"/>
  <rect x="22" y="26" width="28" height="28" rx="6" fill="#1f6feb"/>
  <text x="36" y="45" text-anchor="middle" fill="white" font-size="14" font-weight="bold">B</text>
  <text x="60" y="38" fill="#58a6ff" font-size="13" font-weight="bold">BankPay</text>
  <text x="60" y="54" fill="#8b949e" font-size="9">Proclink Solutions</text>

  <text x="48" y="104" fill="#8b949e" font-size="12">Dashboard</text>
  <text x="48" y="142" fill="#8b949e" font-size="12">My Cards</text>
  <text x="48" y="181" fill="#8b949e" font-size="12">Transactions</text>
  <text x="48" y="219" fill="#8b949e" font-size="12">Transfer</text>

  <rect x="10" y="234" width="150" height="36" rx="8" fill="#11998e" fill-opacity="0.2"/>
  <rect x="10" y="234" width="3" height="36" rx="2" fill="#11998e"/>
  <text x="48" y="257" fill="#11998e" font-size="12" font-weight="bold">E-Wallet</text>

  <text x="48" y="295" fill="#8b949e" font-size="12">Analytics</text>
  <text x="48" y="333" fill="#8b949e" font-size="12">Settings</text>

  <rect x="10" y="442" width="150" height="48" rx="10" fill="#21262d"/>
  <circle cx="36" cy="466" r="16" fill="#1f6feb"/>
  <text x="36" y="471" text-anchor="middle" fill="white" font-size="13" font-weight="bold">R</text>
  <text x="60" y="461" fill="#c9d1d9" font-size="12" font-weight="bold">Rani M.</text>
  <text x="60" y="476" fill="#8b949e" font-size="10">Sr. Engineer</text>

  <!-- Header -->
  <text x="192" y="38" fill="#c9d1d9" font-size="20" font-weight="bold">E-Wallet</text>
  <text x="192" y="57" fill="#8b949e" font-size="12">Digital wallet for instant payments</text>
  <rect x="660" y="20" width="128" height="32" rx="8" fill="#11998e" fill-opacity="0.2"/>
  <text x="724" y="40" text-anchor="middle" fill="#11998e" font-size="12">+ Top Up Wallet</text>

  <!-- Wallet Balance Hero -->
  <rect x="184" y="68" width="380" height="140" rx="16" fill="url(#walletHero)"/>
  <circle cx="500" cy="90" r="70" fill="#11998e" fill-opacity="0.06"/>
  <circle cx="460" cy="170" r="50" fill="#3fb950" fill-opacity="0.05"/>
  <text x="204" y="103" fill="#a0c8b0" font-size="12">Wallet Balance</text>
  <text x="204" y="148" fill="white" font-size="34" font-weight="bold">₹ 18,750.00</text>
  <text x="204" y="172" fill="#3fb950" font-size="12">● Active  ·  Wallet ID: WLT-98234</text>

  <!-- QR Code placeholder -->
  <rect x="506" y="80" width="46" height="46" rx="6" fill="white" fill-opacity="0.12"/>
  <rect x="512" y="86" width="34" height="34" rx="4" fill="none" stroke="white" stroke-width="2" stroke-opacity="0.6"/>
  <rect x="516" y="90" width="8" height="8" rx="1" fill="white" fill-opacity="0.6"/>
  <rect x="530" y="90" width="8" height="8" rx="1" fill="white" fill-opacity="0.6"/>
  <rect x="516" y="104" width="8" height="8" rx="1" fill="white" fill-opacity="0.6"/>
  <rect x="523" y="97" width="5" height="5" rx="1" fill="white" fill-opacity="0.4"/>
  <rect x="530" y="104" width="8" height="8" rx="1" fill="white" fill-opacity="0.6"/>
  <text x="529" y="140" text-anchor="middle" fill="white" font-size="8" fill-opacity="0.7">Scan to Pay</text>

  <!-- Quick Action Buttons -->
  <rect x="184" y="218" width="380" height="88" rx="14" fill="#161b22"/>
  <text x="204" y="242" fill="#c9d1d9" font-size="12" font-weight="bold">Quick Actions</text>

  <!-- Send -->
  <rect x="196" y="252" width="72" height="42" rx="10" fill="#1f6feb" fill-opacity="0.15"/>
  <text x="232" y="270" text-anchor="middle" fill="#58a6ff" font-size="18">↗</text>
  <text x="232" y="286" text-anchor="middle" fill="#58a6ff" font-size="10">Send</text>

  <!-- Receive -->
  <rect x="278" y="252" width="72" height="42" rx="10" fill="#3fb950" fill-opacity="0.1"/>
  <text x="314" y="270" text-anchor="middle" fill="#3fb950" font-size="18">↙</text>
  <text x="314" y="286" text-anchor="middle" fill="#3fb950" font-size="10">Receive</text>

  <!-- Pay Bills -->
  <rect x="360" y="252" width="72" height="42" rx="10" fill="#ffd700" fill-opacity="0.1"/>
  <text x="396" y="270" text-anchor="middle" fill="#ffd700" font-size="18">◎</text>
  <text x="396" y="286" text-anchor="middle" fill="#ffd700" font-size="10">Pay Bills</text>

  <!-- Recharge -->
  <rect x="442" y="252" width="72" height="42" rx="10" fill="#e3342f" fill-opacity="0.1"/>
  <text x="478" y="270" text-anchor="middle" fill="#e3342f" font-size="18">⊕</text>
  <text x="478" y="286" text-anchor="middle" fill="#e3342f" font-size="10">Recharge</text>

  <!-- Wallet Transactions -->
  <text x="184" y="330" fill="#c9d1d9" font-size="13" font-weight="bold">Wallet Transactions</text>
  <text x="560" y="330" fill="#11998e" font-size="11">View All →</text>

  <!-- Transactions list -->
  <rect x="184" y="340" width="380" height="40" rx="8" fill="#161b22"/>
  <circle cx="206" cy="360" r="12" fill="#3fb950" fill-opacity="0.15"/>
  <text x="206" y="365" text-anchor="middle" fill="#3fb950" font-size="14">↙</text>
  <text x="226" y="356" fill="#c9d1d9" font-size="12">Top-Up from Savings</text>
  <text x="226" y="370" fill="#8b949e" font-size="10">18 Apr · Bank Transfer</text>
  <text x="560" y="356" text-anchor="end" fill="#3fb950" font-size="13" font-weight="bold">+ ₹10,000</text>
  <text x="560" y="370" text-anchor="end" fill="#8b949e" font-size="9">Credited</text>

  <rect x="184" y="386" width="380" height="40" rx="8" fill="#161b22"/>
  <circle cx="206" cy="406" r="12" fill="#e3342f" fill-opacity="0.15"/>
  <text x="206" y="411" text-anchor="middle" fill="#e3342f" font-size="14">↗</text>
  <text x="226" y="402" fill="#c9d1d9" font-size="12">Amazon Payment</text>
  <text x="226" y="416" fill="#8b949e" font-size="10">14 Apr · Online Shopping</text>
  <text x="560" y="402" text-anchor="end" fill="#e3342f" font-size="13" font-weight="bold">- ₹3,499</text>
  <text x="560" y="416" text-anchor="end" fill="#8b949e" font-size="9">Debited</text>

  <rect x="184" y="432" width="380" height="40" rx="8" fill="#161b22"/>
  <circle cx="206" cy="452" r="12" fill="#e3342f" fill-opacity="0.15"/>
  <text x="206" y="457" text-anchor="middle" fill="#e3342f" font-size="14">↗</text>
  <text x="226" y="448" fill="#c9d1d9" font-size="12">Electricity Bill</text>
  <text x="226" y="462" fill="#8b949e" font-size="10">10 Apr · Bill Payment</text>
  <text x="560" y="448" text-anchor="end" fill="#e3342f" font-size="13" font-weight="bold">- ₹1,200</text>
  <text x="560" y="462" text-anchor="end" fill="#8b949e" font-size="9">Debited</text>

  <!-- Right Panel: Linked Accounts -->
  <rect x="578" y="68" width="210" height="260" rx="14" fill="#161b22"/>
  <text x="598" y="96" fill="#c9d1d9" font-size="13" font-weight="bold">Linked Accounts</text>
  <rect x="590" y="104" width="186" height="1" fill="#21262d"/>

  <!-- Account 1 -->
  <rect x="590" y="114" width="186" height="48" rx="8" fill="#21262d"/>
  <rect x="590" y="114" width="4" height="48" rx="2" fill="#3fb950"/>
  <text x="604" y="134" fill="#c9d1d9" font-size="11" font-weight="bold">Savings A/C</text>
  <text x="604" y="150" fill="#8b949e" font-size="9">•••• 4521  ·  HDFC Bank</text>
  <text x="774" y="134" text-anchor="end" fill="#3fb950" font-size="10">✓ Linked</text>

  <!-- Account 2 -->
  <rect x="590" y="170" width="186" height="48" rx="8" fill="#21262d"/>
  <rect x="590" y="170" width="4" height="48" rx="2" fill="#58a6ff"/>
  <text x="604" y="190" fill="#c9d1d9" font-size="11" font-weight="bold">Current A/C</text>
  <text x="604" y="206" fill="#8b949e" font-size="9">•••• 7830  ·  ICICI Bank</text>
  <text x="774" y="190" text-anchor="end" fill="#3fb950" font-size="10">✓ Linked</text>

  <!-- Add Account -->
  <rect x="590" y="226" width="186" height="34" rx="8" fill="#1f6feb" fill-opacity="0.1"/>
  <text x="683" y="248" text-anchor="middle" fill="#58a6ff" font-size="11">+ Link New Account</text>

  <rect x="590" y="268" width="186" height="1" fill="#21262d"/>

  <text x="598" y="292" fill="#8b949e" font-size="11">Wallet Limit</text>
  <text x="774" y="292" text-anchor="end" fill="#c9d1d9" font-size="12" font-weight="bold">₹ 1,00,000</text>

  <text x="598" y="316" fill="#8b949e" font-size="11">Daily Limit</text>
  <text x="774" y="316" text-anchor="end" fill="#c9d1d9" font-size="12" font-weight="bold">₹ 25,000</text>

  <!-- Stats Summary -->
  <rect x="578" y="340" width="210" height="140" rx="14" fill="#161b22"/>
  <text x="598" y="366" fill="#c9d1d9" font-size="13" font-weight="bold">Wallet Stats</text>
  <rect x="590" y="374" width="186" height="1" fill="#21262d"/>

  <text x="598" y="396" fill="#8b949e" font-size="11">This Month Spent</text>
  <text x="778" y="396" text-anchor="end" fill="#e3342f" font-size="14" font-weight="bold">₹ 14,250</text>

  <text x="598" y="420" fill="#8b949e" font-size="11">Total Top-Ups</text>
  <text x="778" y="420" text-anchor="end" fill="#3fb950" font-size="14" font-weight="bold">₹ 33,000</text>

  <text x="598" y="444" fill="#8b949e" font-size="11">Cashback Earned</text>
  <text x="778" y="444" text-anchor="end" fill="#ffd700" font-size="14" font-weight="bold">₹ 480</text>

  <text x="598" y="468" fill="#8b949e" font-size="11">Total Transactions</text>
  <text x="778" y="468" text-anchor="end" fill="#58a6ff" font-size="14" font-weight="bold">47</text>
</svg>
