<svg width="800" height="500" xmlns="http://www.w3.org/2000/svg" font-family="Arial, sans-serif">
  <defs>
    <linearGradient id="card2" x1="0%" y1="0%" x2="100%" y2="100%">
      <stop offset="0%" stop-color="#1a3a8b"/>
      <stop offset="100%" stop-color="#0d1f6b"/>
    </linearGradient>
    <linearGradient id="card3" x1="0%" y1="0%" x2="100%" y2="100%">
      <stop offset="0%" stop-color="#2d1b69"/>
      <stop offset="100%" stop-color="#11998e"/>
    </linearGradient>
    <linearGradient id="sidebar2" x1="0%" y1="0%" x2="0%" y2="100%">
      <stop offset="0%" stop-color="#0f1923"/>
      <stop offset="100%" stop-color="#0a1118"/>
    </linearGradient>
  </defs>

  <rect width="800" height="500" fill="#0d1117"/>

  <!-- Sidebar -->
  <rect x="0" y="0" width="170" height="500" fill="url(#sidebar2)"/>
  <rect x="168" y="0" width="2" height="500" fill="#21262d"/>
  <rect x="15" y="16" width="140" height="48" rx="10" fill="#1f6feb" fill-opacity="0.15"/>
  <rect x="22" y="26" width="28" height="28" rx="6" fill="#1f6feb"/>
  <text x="36" y="45" text-anchor="middle" fill="white" font-size="14" font-weight="bold">B</text>
  <text x="60" y="38" fill="#58a6ff" font-size="13" font-weight="bold">BankPay</text>
  <text x="60" y="54" fill="#8b949e" font-size="9">Proclink Solutions</text>

  <rect x="22" y="91" width="18" height="18" rx="4" fill="#8b949e" fill-opacity="0.1"/>
  <text x="31" y="104" text-anchor="middle" fill="#8b949e" font-size="11">▦</text>
  <text x="48" y="104" fill="#8b949e" font-size="12">Dashboard</text>

  <rect x="10" y="120" width="150" height="36" rx="8" fill="#1f6feb" fill-opacity="0.2"/>
  <rect x="10" y="120" width="3" height="36" rx="2" fill="#58a6ff"/>
  <rect x="22" y="129" width="18" height="18" rx="4" fill="#58a6ff" fill-opacity="0.3"/>
  <text x="31" y="142" text-anchor="middle" fill="#58a6ff" font-size="11">◈</text>
  <text x="48" y="142" fill="#58a6ff" font-size="12" font-weight="bold">My Cards</text>

  <text x="48" y="181" fill="#8b949e" font-size="12">Transactions</text>
  <text x="48" y="219" fill="#8b949e" font-size="12">Transfer</text>
  <text x="48" y="257" fill="#8b949e" font-size="12">E-Wallet</text>
  <text x="48" y="295" fill="#8b949e" font-size="12">Analytics</text>
  <text x="48" y="333" fill="#8b949e" font-size="12">Settings</text>

  <rect x="10" y="442" width="150" height="48" rx="10" fill="#21262d"/>
  <circle cx="36" cy="466" r="16" fill="#1f6feb"/>
  <text x="36" y="471" text-anchor="middle" fill="white" font-size="13" font-weight="bold">R</text>
  <text x="60" y="461" fill="#c9d1d9" font-size="12" font-weight="bold">Rani M.</text>
  <text x="60" y="476" fill="#8b949e" font-size="10">Sr. Engineer</text>

  <!-- Header -->
  <text x="192" y="38" fill="#c9d1d9" font-size="20" font-weight="bold">Credit Card Management</text>
  <text x="192" y="57" fill="#8b949e" font-size="12">Manage your cards and transactions</text>
  <rect x="670" y="20" width="118" height="32" rx="8" fill="#1f6feb" fill-opacity="0.2"/>
  <text x="729" y="40" text-anchor="middle" fill="#58a6ff" font-size="12">+ Add New Card</text>

  <!-- Credit Card Visual -->
  <rect x="184" y="68" width="330" height="188" rx="18" fill="url(#card2)"/>
  <circle cx="460" cy="90" r="70" fill="white" fill-opacity="0.04"/>
  <circle cx="440" cy="200" r="55" fill="white" fill-opacity="0.03"/>
  <!-- Chip -->
  <rect x="210" y="110" width="40" height="30" rx="5" fill="#ffd700" fill-opacity="0.7"/>
  <rect x="220" y="116" width="20" height="2" rx="1" fill="#b8860b" fill-opacity="0.5"/>
  <rect x="220" y="121" width="20" height="2" rx="1" fill="#b8860b" fill-opacity="0.5"/>
  <rect x="220" y="126" width="20" height="2" rx="1" fill="#b8860b" fill-opacity="0.5"/>
  <!-- Wifi logo -->
  <text x="490" y="130" text-anchor="end" fill="white" font-size="22" fill-opacity="0.8">◉</text>
  <!-- Card Number -->
  <text x="210" y="180" fill="white" font-size="16" letter-spacing="3" font-weight="bold">4521  ****  ****  7830</text>
  <!-- Card Holder -->
  <text x="210" y="215" fill="#a0b4d0" font-size="10">CARD HOLDER</text>
  <text x="210" y="232" fill="white" font-size="13" font-weight="bold">RANI S MOHADIKAR</text>
  <!-- Expiry -->
  <text x="390" y="215" fill="#a0b4d0" font-size="10">EXPIRES</text>
  <text x="390" y="232" fill="white" font-size="13" font-weight="bold">08/28</text>
  <!-- Visa logo -->
  <text x="498" y="242" text-anchor="end" fill="white" font-size="20" font-style="italic" font-weight="bold" fill-opacity="0.9">VISA</text>

  <!-- Card 2 (smaller, behind) -->
  <rect x="224" y="262" width="280" height="14" rx="7" fill="url(#card3)" fill-opacity="0.4"/>

  <!-- Card Stats -->
  <rect x="524" y="68" width="264" height="188" rx="14" fill="#161b22"/>
  <text x="544" y="98" fill="#c9d1d9" font-size="13" font-weight="bold">Card Overview</text>
  <rect x="536" y="106" width="236" height="1" fill="#21262d"/>

  <text x="544" y="130" fill="#8b949e" font-size="11">Credit Limit</text>
  <text x="778" y="130" text-anchor="end" fill="#c9d1d9" font-size="14" font-weight="bold">₹ 3,00,000</text>

  <text x="544" y="158" fill="#8b949e" font-size="11">Amount Used</text>
  <text x="778" y="158" text-anchor="end" fill="#e3342f" font-size="14" font-weight="bold">₹ 2,40,000</text>

  <!-- Usage bar -->
  <rect x="544" y="166" width="236" height="8" rx="4" fill="#21262d"/>
  <rect x="544" y="166" width="189" height="8" rx="4" fill="#e3342f"/>
  <text x="544" y="186" fill="#8b949e" font-size="10">80% of limit used</text>

  <rect x="536" y="194" width="236" height="1" fill="#21262d"/>
  <text x="544" y="214" fill="#8b949e" font-size="11">Available Balance</text>
  <text x="778" y="214" text-anchor="end" fill="#3fb950" font-size="14" font-weight="bold">₹ 60,000</text>

  <text x="544" y="238" fill="#8b949e" font-size="11">Due Date</text>
  <text x="778" y="238" text-anchor="end" fill="#ffd700" font-size="14" font-weight="bold">05 May 2026</text>

  <!-- Card Controls -->
  <rect x="536" y="248" width="52" height="0" rx="4" fill="none"/>
  <rect x="536" y="248" width="236" height="1" fill="#21262d"/>

  <rect x="540" y="256" width="72" height="26" rx="8" fill="#1f6feb" fill-opacity="0.15"/>
  <text x="576" y="273" text-anchor="middle" fill="#58a6ff" font-size="10">🔒 Freeze</text>

  <rect x="620" y="256" width="72" height="26" rx="8" fill="#3fb950" fill-opacity="0.1"/>
  <text x="656" y="273" text-anchor="middle" fill="#3fb950" font-size="10">↑ Limit</text>

  <rect x="700" y="256" width="72" height="26" rx="8" fill="#e3342f" fill-opacity="0.1"/>
  <text x="736" y="273" text-anchor="middle" fill="#e3342f" font-size="10">✕ Block</text>

  <!-- Transaction History Section -->
  <text x="184" y="308" fill="#c9d1d9" font-size="13" font-weight="bold">Card Transactions</text>
  <text x="750" y="308" text-anchor="end" fill="#58a6ff" font-size="11">View All →</text>

  <!-- Table header -->
  <rect x="184" y="316" width="604" height="28" rx="6" fill="#161b22"/>
  <text x="200" y="334" fill="#8b949e" font-size="10" font-weight="bold">DATE</text>
  <text x="310" y="334" fill="#8b949e" font-size="10" font-weight="bold">MERCHANT</text>
  <text x="490" y="334" fill="#8b949e" font-size="10" font-weight="bold">CATEGORY</text>
  <text x="782" y="334" text-anchor="end" fill="#8b949e" font-size="10" font-weight="bold">AMOUNT</text>

  <!-- Rows -->
  <rect x="184" y="348" width="604" height="34" rx="6" fill="#0d1117"/>
  <text x="200" y="368" fill="#c9d1d9" font-size="11">14 Apr 2026</text>
  <text x="310" y="368" fill="#c9d1d9" font-size="11">Amazon India</text>
  <rect x="490" y="358" width="64" height="18" rx="6" fill="#1f6feb" fill-opacity="0.2"/>
  <text x="522" y="371" text-anchor="middle" fill="#58a6ff" font-size="10">Shopping</text>
  <text x="782" y="368" text-anchor="end" fill="#e3342f" font-size="12" font-weight="bold">- ₹3,499</text>

  <rect x="184" y="386" width="604" height="34" rx="6" fill="#0d1117"/>
  <text x="200" y="406" fill="#c9d1d9" font-size="11">12 Apr 2026</text>
  <text x="310" y="406" fill="#c9d1d9" font-size="11">Swiggy</text>
  <rect x="490" y="396" width="64" height="18" rx="6" fill="#e3342f" fill-opacity="0.15"/>
  <text x="522" y="409" text-anchor="middle" fill="#e3342f" font-size="10">Food</text>
  <text x="782" y="406" text-anchor="end" fill="#e3342f" font-size="12" font-weight="bold">- ₹850</text>

  <rect x="184" y="424" width="604" height="34" rx="6" fill="#0d1117"/>
  <text x="200" y="444" fill="#c9d1d9" font-size="11">10 Apr 2026</text>
  <text x="310" y="444" fill="#c9d1d9" font-size="11">MakeMyTrip</text>
  <rect x="490" y="434" width="64" height="18" rx="6" fill="#ffd700" fill-opacity="0.15"/>
  <text x="522" y="447" text-anchor="middle" fill="#ffd700" font-size="10">Travel</text>
  <text x="782" y="444" text-anchor="end" fill="#e3342f" font-size="12" font-weight="bold">- ₹12,500</text>

  <rect x="184" y="462" width="604" height="28" rx="6" fill="#0d1117"/>
  <text x="200" y="480" fill="#c9d1d9" font-size="11">08 Apr 2026</text>
  <text x="310" y="480" fill="#c9d1d9" font-size="11">Cashback Reward</text>
  <rect x="490" y="470" width="64" height="18" rx="6" fill="#3fb950" fill-opacity="0.15"/>
  <text x="522" y="483" text-anchor="middle" fill="#3fb950" font-size="10">Reward</text>
  <text x="782" y="480" text-anchor="end" fill="#3fb950" font-size="12" font-weight="bold">+ ₹250</text>
</svg>
